<svg width="911" height="319" viewBox="0 0 911 319" fill="none" xmlns="http://www.w3.org/2000/svg">
<rect width="911" height="319" fill="#111111"/>
<path d="M100.324 211V107.727H122.158V150.337H166.483V107.727H188.267V211H166.483V168.339H122.158V211H100.324ZM301.171 159.364C301.171 170.625 299.036 180.206 294.767 188.107C290.531 196.007 284.749 202.041 277.42 206.21C270.125 210.344 261.922 212.412 252.812 212.412C243.635 212.412 235.398 210.328 228.103 206.159C220.808 201.991 215.043 195.956 210.807 188.056C206.571 180.156 204.453 170.592 204.453 159.364C204.453 148.102 206.571 138.521 210.807 130.621C215.043 122.721 220.808 116.703 228.103 112.568C235.398 108.4 243.635 106.315 252.812 106.315C261.922 106.315 270.125 108.4 277.42 112.568C284.749 116.703 290.531 122.721 294.767 130.621C299.036 138.521 301.171 148.102 301.171 159.364ZM279.034 159.364C279.034 152.069 277.941 145.917 275.756 140.908C273.605 135.899 270.562 132.1 266.629 129.511C262.696 126.923 258.09 125.629 252.812 125.629C247.534 125.629 242.929 126.923 238.995 129.511C235.062 132.1 232.003 135.899 229.818 140.908C227.666 145.917 226.591 152.069 226.591 159.364C226.591 166.659 227.666 172.811 229.818 177.82C232.003 182.829 235.062 186.627 238.995 189.216C242.929 191.804 247.534 193.099 252.812 193.099C258.09 193.099 262.696 191.804 266.629 189.216C270.562 186.627 273.605 182.829 275.756 177.82C277.941 172.811 279.034 166.659 279.034 159.364ZM412.247 159.364C412.247 170.625 410.112 180.206 405.843 188.107C401.607 196.007 395.825 202.041 388.496 206.21C381.201 210.344 372.999 212.412 363.888 212.412C354.711 212.412 346.474 210.328 339.18 206.159C331.885 201.991 326.119 195.956 321.883 188.056C317.648 180.156 315.53 170.592 315.53 159.364C315.53 148.102 317.648 138.521 321.883 130.621C326.119 122.721 331.885 116.703 339.18 112.568C346.474 108.4 354.711 106.315 363.888 106.315C372.999 106.315 381.201 108.4 388.496 112.568C395.825 116.703 401.607 122.721 405.843 130.621C410.112 138.521 412.247 148.102 412.247 159.364ZM390.11 159.364C390.11 152.069 389.017 145.917 386.832 140.908C384.681 135.899 381.638 132.1 377.705 129.511C373.772 126.923 369.166 125.629 363.888 125.629C358.61 125.629 354.005 126.923 350.072 129.511C346.138 132.1 343.079 135.899 340.894 140.908C338.742 145.917 337.667 152.069 337.667 159.364C337.667 166.659 338.742 172.811 340.894 177.82C343.079 182.829 346.138 186.627 350.072 189.216C354.005 191.804 358.61 193.099 363.888 193.099C369.166 193.099 373.772 191.804 377.705 189.216C381.638 186.627 384.681 182.829 386.832 177.82C389.017 172.811 390.11 166.659 390.11 159.364ZM428.421 211V107.727H469.165C476.998 107.727 483.671 109.223 489.185 112.215C494.698 115.174 498.9 119.292 501.791 124.57C504.716 129.814 506.178 135.865 506.178 142.723C506.178 149.581 504.699 155.632 501.741 160.876C498.782 166.121 494.496 170.205 488.882 173.13C483.302 176.055 476.545 177.517 468.611 177.517H442.641V160.019H465.081C469.283 160.019 472.746 159.296 475.469 157.851C478.225 156.372 480.276 154.338 481.621 151.749C482.999 149.127 483.688 146.118 483.688 142.723C483.688 139.294 482.999 136.302 481.621 133.747C480.276 131.159 478.225 129.158 475.469 127.746C472.712 126.301 469.216 125.578 464.98 125.578H450.256V211H428.421ZM520.361 211V107.727H542.195V192.998H586.469V211H520.361ZM622.763 107.727V211H600.929V107.727H622.763ZM696.751 137.428C696.348 133.361 694.617 130.201 691.557 127.948C688.498 125.696 684.346 124.57 679.102 124.57C675.539 124.57 672.53 125.074 670.076 126.082C667.622 127.057 665.739 128.419 664.428 130.167C663.151 131.915 662.512 133.898 662.512 136.117C662.445 137.966 662.831 139.58 663.672 140.958C664.546 142.336 665.739 143.53 667.252 144.538C668.765 145.513 670.513 146.37 672.496 147.11C674.48 147.816 676.598 148.421 678.85 148.925L688.128 151.144C692.633 152.153 696.768 153.497 700.533 155.178C704.298 156.859 707.559 158.927 710.316 161.381C713.073 163.835 715.207 166.726 716.72 170.054C718.266 173.382 719.056 177.198 719.09 181.501C719.056 187.821 717.443 193.3 714.249 197.94C711.089 202.545 706.517 206.125 700.533 208.68C694.583 211.202 687.406 212.462 679.001 212.462C670.664 212.462 663.403 211.185 657.217 208.63C651.065 206.075 646.258 202.293 642.795 197.284C639.366 192.241 637.568 186.005 637.4 178.576H658.528C658.764 182.039 659.755 184.93 661.503 187.249C663.285 189.535 665.655 191.267 668.613 192.443C671.605 193.586 674.984 194.158 678.749 194.158C682.447 194.158 685.657 193.62 688.381 192.544C691.137 191.468 693.272 189.972 694.785 188.056C696.297 186.14 697.054 183.938 697.054 181.45C697.054 179.131 696.365 177.181 694.986 175.601C693.642 174.021 691.658 172.676 689.036 171.567C686.448 170.457 683.271 169.449 679.506 168.541L668.26 165.717C659.554 163.599 652.679 160.288 647.636 155.783C642.594 151.279 640.089 145.211 640.123 137.58C640.089 131.327 641.753 125.864 645.115 121.191C648.51 116.518 653.166 112.871 659.083 110.249C665 107.626 671.723 106.315 679.253 106.315C686.918 106.315 693.608 107.626 699.323 110.249C705.072 112.871 709.543 116.518 712.736 121.191C715.93 125.864 717.577 131.276 717.678 137.428H696.751ZM729.843 125.729V107.727H814.66V125.729H783.043V211H761.461V125.729H729.843Z" fill="white"/>
</svg>
